<?xml version="1.0" standalone="no"?>
<!DOCTYPE svg PUBLIC "-//W3C//DTD SVG 20010904//EN"
 "http://www.w3.org/TR/2001/REC-SVG-20010904/DTD/svg10.dtd">
<svg version="1.0" xmlns="http://www.w3.org/2000/svg"
 width="512.000000pt" height="512.000000pt" viewBox="0 0 512.000000 512.000000"
 preserveAspectRatio="xMidYMid meet">
<metadata>
Created by potrace 1.11, written by Peter Selinger 2001-2013
</metadata>
<g transform="translate(0.000000,512.000000) scale(0.100000,-0.100000)"
fill="#000000" stroke="none">
<path d="M2480 5111 c-162 -53 -251 -210 -206 -365 10 -32 16 -59 14 -61 -2
-1 -326 -189 -722 -418 l-718 -415 -36 35 c-52 52 -114 77 -197 77 -116 1
-209 -56 -267 -167 -34 -64 -32 -184 4 -252 14 -27 41 -64 60 -82 34 -33 110
-72 141 -73 16 0 17 -44 15 -831 l-3 -832 -49 -14 c-73 -22 -159 -110 -181
-188 -57 -196 87 -383 292 -378 61 2 136 32 178 73 l31 30 722 -418 723 -417
-8 -35 c-33 -145 27 -283 151 -348 43 -22 64 -27 131 -27 67 0 88 5 131 27
124 65 184 203 151 348 l-8 35 118 67 c65 37 390 225 723 417 l605 350 30 -29
c104 -100 286 -96 394 9 82 80 109 187 75 301 -22 73 -109 162 -180 183 l-49
14 -3 832 c-2 787 -1 831 15 831 31 1 107 40 141 73 19 18 46 55 60 82 22 42
27 63 27 130 0 67 -5 88 -27 131 -91 174 -322 214 -460 80 l-35 -34 -99 57
c-479 277 -1340 774 -1342 776 -2 2 4 29 14 61 52 181 -77 361 -266 370 -36 2
-76 0 -90 -5z m186 -106 c50 -29 90 -90 99 -150 23 -141 -117 -268 -257 -234
-104 24 -182 138 -163 237 14 79 75 148 151 172 45 15 122 3 170 -25z m-277
-420 c29 -19 68 -37 87 -41 l34 -6 -2 -395 -3 -395 -475 -275 c-261 -152 -482
-277 -490 -279 -8 -3 -157 79 -330 180 l-315 184 5 38 c6 59 6 115 -2 154 l-7
35 106 60 c58 33 383 221 722 417 339 196 617 357 617 357 1 1 25 -15 53 -34z
m1112 -385 l719 -415 -7 -35 c-8 -40 -9 -97 -3 -154 l5 -38 -315 -184 c-173
-101 -317 -184 -321 -184 -4 0 -225 125 -491 279 l-483 279 -3 394 -2 394 42
11 c24 6 61 25 83 42 22 16 44 29 48 27 5 -1 332 -188 728 -416z m-2833 -322
c67 -17 135 -87 151 -156 34 -140 -93 -280 -234 -257 -91 14 -166 89 -180 181
-17 100 58 211 157 234 47 11 54 11 106 -2z m3939 -24 c87 -50 125 -167 84
-260 -29 -64 -46 -82 -106 -110 -88 -42 -165 -27 -236 45 -175 175 44 449 258
325z m-1552 -459 l485 -280 -3 -569 -2 -568 -490 -283 c-352 -204 -494 -281
-505 -275 -8 5 -229 132 -490 284 l-475 275 -2 568 -2 568 487 282 c268 155
493 281 499 280 7 -1 231 -128 498 -282z m-1881 -94 l316 -184 -2 -571 -3
-571 -318 -179 -318 -179 -32 31 c-34 32 -95 65 -139 76 l-28 6 0 826 c0 651
3 825 13 828 62 18 111 42 143 71 22 19 42 33 45 32 3 -1 149 -85 323 -186z
m3133 152 c24 -20 68 -44 96 -54 l52 -18 3 -825 2 -826 -27 -6 c-45 -11 -106
-44 -140 -76 l-32 -31 -318 180 -318 180 -3 569 -2 569 317 187 c175 102 319
187 321 187 2 1 24 -16 49 -36z m-2282 -1828 l485 -280 0 -380 0 -381 -44 -12
c-24 -6 -65 -29 -93 -50 l-49 -39 -94 55 c-52 30 -372 214 -710 410 -338 195
-620 359 -626 364 -9 6 -8 21 3 56 10 33 12 63 6 102 -4 30 -8 61 -8 67 0 12
622 372 637 369 4 0 226 -127 493 -281z m1879 101 c282 -159 317 -181 312
-200 -15 -61 -16 -106 -2 -156 8 -30 11 -56 8 -58 -4 -1 -329 -189 -722 -416
l-715 -414 -34 30 c-38 33 -105 67 -133 68 -17 0 -18 25 -18 383 l0 382 488
282 c268 155 490 281 493 280 3 -1 148 -82 323 -181z m-3223 -88 c88 -29 142
-105 142 -197 0 -123 -87 -211 -208 -211 -181 0 -279 204 -164 343 55 67 148
93 230 65z m3906 -9 c126 -61 161 -222 71 -325 -98 -112 -279 -96 -346 31 -56
108 -17 236 89 289 65 32 127 34 186 5z m-1936 -1144 c14 -8 42 -32 62 -54
164 -182 -74 -449 -278 -310 -108 74 -121 230 -27 322 65 63 167 81 243 42z"/>
<path d="M2421 3044 c-239 -64 -403 -318 -362 -561 42 -247 248 -423 496 -423
248 0 454 176 496 423 41 245 -124 499 -366 562 -73 19 -192 18 -264 -1z m260
-83 c153 -48 261 -174 290 -340 26 -148 -47 -318 -176 -406 -218 -151 -518
-64 -626 180 -98 222 25 490 261 566 74 24 173 24 251 0z"/>
<path d="M2435 2826 c-57 -26 -126 -96 -151 -153 -23 -51 -23 -175 0 -226 25
-57 94 -127 151 -153 106 -50 246 -24 328 61 59 61 82 118 82 205 0 88 -23
144 -83 205 -84 85 -221 111 -327 61z m203 -71 c129 -54 169 -221 80 -330 -57
-69 -162 -94 -246 -60 -172 72 -167 324 8 394 38 15 116 13 158 -4z"/>
</g>
</svg>
