<svg width="319" height="72" viewBox="0 0 319 72" class="css-1j8o68f"><defs id="SvgjsDefs2121"></defs><g id="SvgjsG2122" featurekey="symbolFeature-0" transform="matrix(1.1427862644195557,0,0,1.1427862644195557,-5.129146258292517,-0.5713931427862856)" fill="#ff7e67"><g xmlns="http://www.w3.org/2000/svg" display="none"><line display="inline" fill="#ff7e67" stroke="#ff7e67" stroke-miterlimit="10" x1="7.304" y1="17.851" x2="18.989" y2="24.652"></line><line display="inline" fill="#ff7e67" stroke="#ff7e67" stroke-miterlimit="10" x1="18.989" y1="39.675" x2="7.304" y2="46.25"></line><line display="inline" fill="#ff7e67" stroke="#ff7e67" stroke-miterlimit="10" x1="45.011" y1="39.675" x2="56.696" y2="46.25"></line><line display="inline" fill="#ff7e67" stroke="#ff7e67" stroke-miterlimit="10" x1="56.696" y1="17.851" x2="45.011" y2="24.652"></line><line display="inline" fill="#ff7e67" stroke="#ff7e67" stroke-miterlimit="10" x1="32" y1="3.219" x2="32" y2="17.14"></line><line display="inline" fill="#ff7e67" stroke="#ff7e67" stroke-miterlimit="10" x1="32" y1="47.187" x2="32" y2="61.109"></line><polygon display="inline" fill="#ff7e67" stroke="#ff7e67" stroke-width="2.5" stroke-miterlimit="10" points="7.304,17.906 32,3.648    56.696,17.906 56.696,46.422 32,60.68 7.304,46.422  "></polygon><polygon display="inline" fill="#ff7e67" stroke="#ff7e67" stroke-miterlimit="10" points="18.989,24.652 32,17.14 45.011,24.652    45.011,39.675 32,47.187 18.989,39.675  "></polygon><circle display="inline" fill="#ff7e67" cx="56.696" cy="46.25" r="3.219"></circle><circle display="inline" fill="#ff7e67" cx="7.304" cy="17.851" r="3.219"></circle><circle display="inline" fill="#ff7e67" cx="56.696" cy="17.851" r="3.219"></circle><circle display="inline" fill="#ff7e67" cx="7.304" cy="46.25" r="3.219"></circle><circle display="inline" fill="#ff7e67" cx="32" cy="32.004" r="3.219"></circle><circle display="inline" fill="#ff7e67" stroke="#ff7e67" stroke-miterlimit="10" cx="32" cy="32.004" r="5.88"></circle><circle display="inline" fill="#ff7e67" cx="32" cy="3.219" r="3.219"></circle><circle display="inline" fill="#ff7e67" cx="32" cy="60.781" r="3.219"></circle></g><g xmlns="http://www.w3.org/2000/svg" display="none"><rect x="-415.661" y="-242.328" display="inline" fill="#ff7e67" stroke="#ff7e67" stroke-miterlimit="10" width="785.333" height="403.333"></rect></g><g xmlns="http://www.w3.org/2000/svg" display="none"><g display="inline"><rect x="12.646" y="14.491" transform="matrix(0.503 -0.8643 0.8643 0.503 -11.8332 21.9245)" fill="#ff7e67" width="1.001" height="13.52"></rect></g><g display="inline"><rect x="6.443" y="42.463" transform="matrix(0.8715 -0.4904 0.4904 0.8715 -19.3812 11.9698)" fill="#ff7e67" width="13.408" height="1"></rect></g><g display="inline"><rect x="50.354" y="36.259" transform="matrix(0.4904 -0.8715 0.8715 0.4904 -11.5273 66.2117)" fill="#ff7e67" width="1" height="13.408"></rect></g><g display="inline"><rect x="44.094" y="20.751" transform="matrix(0.8641 -0.5033 0.5033 0.8641 -3.7857 28.48)" fill="#ff7e67" width="13.52" height="1.001"></rect></g><g display="inline"><rect x="31.5" y="3.219" fill="#ff7e67" width="1" height="13.921"></rect></g><g display="inline"><rect x="31.5" y="47.187" fill="#ff7e67" width="1" height="13.922"></rect></g><g display="inline"><path fill="#ff7e67" d="M32,62.123L6.054,47.144v-29.96L32,2.204l25.945,14.979v29.96L32,62.123z M8.554,45.701L32,59.237    l23.445-13.536V18.627L32,5.091L8.554,18.627V45.701z"></path></g><g display="inline"><path fill="#ff7e67" d="M32,47.764l-13.511-7.8V24.363L32,16.563l13.511,7.8v15.602L32,47.764z M19.49,39.386L32,46.61    l12.511-7.224V24.941L32,17.717L19.49,24.941V39.386z"></path></g><g display="inline"><circle fill="#ff7e67" cx="56.696" cy="46.25" r="3.219"></circle></g><g display="inline"><circle fill="#ff7e67" cx="7.304" cy="17.851" r="3.219"></circle></g><g display="inline"><circle fill="#ff7e67" cx="56.696" cy="17.851" r="3.219"></circle></g><g display="inline"><circle fill="#ff7e67" cx="7.304" cy="46.25" r="3.219"></circle></g><g display="inline"><circle fill="#ff7e67" cx="32" cy="32.004" r="3.219"></circle></g><g display="inline"><path fill="#ff7e67" d="M32,38.384c-3.519,0-6.381-2.862-6.381-6.38s2.862-6.38,6.381-6.38c3.518,0,6.38,2.862,6.38,6.38    S35.518,38.384,32,38.384z M32,26.624c-2.967,0-5.381,2.413-5.381,5.38s2.414,5.38,5.381,5.38s5.38-2.413,5.38-5.38    S34.967,26.624,32,26.624z"></path></g><g display="inline"><circle fill="#ff7e67" cx="32" cy="3.219" r="3.219"></circle></g><g display="inline"><circle fill="#ff7e67" cx="32" cy="60.781" r="3.219"></circle></g></g><g xmlns="http://www.w3.org/2000/svg" display="none"><g display="inline"><line fill="#ff7e67" stroke="#ff7e67" stroke-width="2" stroke-miterlimit="10" x1="8.104" y1="18.293" x2="19.411" y2="24.882"></line><line fill="#ff7e67" stroke="#ff7e67" stroke-width="2" stroke-miterlimit="10" x1="19.411" y1="39.436" x2="8.104" y2="45.805"></line><line fill="#ff7e67" stroke="#ff7e67" stroke-width="2" stroke-miterlimit="10" x1="44.589" y1="39.436" x2="55.896" y2="45.805"></line><line fill="#ff7e67" stroke="#ff7e67" stroke-width="2" stroke-miterlimit="10" x1="55.896" y1="18.293" x2="44.589" y2="24.882"></line><line fill="#ff7e67" stroke="#ff7e67" stroke-width="2" stroke-miterlimit="10" x1="32" y1="4.118" x2="32" y2="17.605"></line><line fill="#ff7e67" stroke="#ff7e67" stroke-width="2" stroke-miterlimit="10" x1="32" y1="46.713" x2="32" y2="60.199"></line><polygon fill="#ff7e67" stroke="#ff7e67" stroke-width="2" stroke-miterlimit="10" points="8.104,18.346 32,4.534 55.896,18.346     55.896,45.971 32,59.783 8.104,45.971   "></polygon><polygon fill="#ff7e67" stroke="#ff7e67" stroke-width="2" stroke-miterlimit="10" points="19.411,24.882 32,17.605 44.589,24.882     44.589,39.436 32,46.713 19.411,39.436   "></polygon><ellipse fill="#ff7e67" cx="32" cy="32.004" rx="3.115" ry="3.118"></ellipse><ellipse fill="#ff7e67" stroke="#ff7e67" stroke-width="2" stroke-miterlimit="10" cx="32" cy="32.004" rx="5.69" ry="5.696"></ellipse><ellipse fill="#ff7e67" stroke="#ff7e67" stroke-width="2" stroke-miterlimit="10" cx="55.896" cy="45.805" rx="3.115" ry="3.118"></ellipse><ellipse fill="#ff7e67" stroke="#ff7e67" stroke-width="2" stroke-miterlimit="10" cx="8.104" cy="18.293" rx="3.115" ry="3.118"></ellipse><ellipse fill="#ff7e67" stroke="#ff7e67" stroke-width="2" stroke-miterlimit="10" cx="55.896" cy="18.293" rx="3.115" ry="3.118"></ellipse><ellipse fill="#ff7e67" stroke="#ff7e67" stroke-width="2" stroke-miterlimit="10" cx="8.104" cy="45.805" rx="3.115" ry="3.118"></ellipse><ellipse fill="#ff7e67" stroke="#ff7e67" stroke-width="2" stroke-miterlimit="10" cx="32" cy="4.118" rx="3.115" ry="3.118"></ellipse><ellipse fill="#ff7e67" stroke="#ff7e67" stroke-width="2" stroke-miterlimit="10" cx="32" cy="59.882" rx="3.115" ry="3.118"></ellipse></g></g><g xmlns="http://www.w3.org/2000/svg"><g><path d="M32,28.386c-1.993,0-3.615,1.623-3.615,3.618s1.622,3.618,3.615,3.618s3.614-1.623,3.614-3.618S33.993,28.386,32,28.386z     M32,34.622c-1.442,0-2.615-1.175-2.615-2.618c0-1.443,1.173-2.618,2.615-2.618c1.441,0,2.614,1.175,2.614,2.618    C34.615,33.448,33.442,34.622,32,34.622z"></path><path d="M32,25.808c-3.413,0-6.19,2.779-6.19,6.196s2.777,6.196,6.19,6.196s6.189-2.779,6.189-6.196S35.413,25.808,32,25.808z     M32,37.201c-2.862,0-5.19-2.331-5.19-5.196s2.328-5.196,5.19-5.196c2.861,0,5.189,2.331,5.189,5.196S34.862,37.201,32,37.201z"></path><path d="M59.511,18.293c0-1.995-1.622-3.618-3.615-3.618c-1.172,0-2.204,0.57-2.865,1.438L35.183,5.796    c0.266-0.504,0.431-1.069,0.431-1.678C35.615,2.123,33.993,0.5,32,0.5s-3.615,1.623-3.615,3.618c0,0.609,0.165,1.174,0.432,1.678    L10.969,16.113c-0.661-0.868-1.694-1.437-2.866-1.437c-1.993,0-3.614,1.623-3.614,3.618c0,1.824,1.359,3.321,3.114,3.568v20.377    c-1.755,0.246-3.114,1.744-3.114,3.568c0,1.995,1.621,3.618,3.614,3.618c1.103,0,2.08-0.508,2.743-1.289l17.838,10.311    c-0.192,0.441-0.301,0.926-0.301,1.436c0,1.995,1.622,3.619,3.615,3.619s3.614-1.624,3.614-3.619c0-0.511-0.109-0.995-0.3-1.436    l17.839-10.311c0.663,0.782,1.64,1.289,2.743,1.289c1.993,0,3.615-1.623,3.615-3.618c0-1.824-1.36-3.321-3.115-3.568V21.861    C58.151,21.614,59.511,20.117,59.511,18.293z M53.035,43.62l-7.945-4.476V25.169l7.979-4.65c0.564,0.716,1.384,1.209,2.328,1.341    v20.377C54.434,42.373,53.599,42.881,53.035,43.62z M55.896,15.675c1.442,0,2.615,1.175,2.615,2.618s-1.173,2.618-2.615,2.618    c-1.441,0-2.614-1.175-2.614-2.618S54.454,15.675,55.896,15.675z M52.536,16.981c-0.16,0.408-0.255,0.848-0.255,1.312    c0,0.485,0.099,0.946,0.273,1.369l-7.966,4.642L32.5,17.317V7.686c0.822-0.115,1.556-0.497,2.104-1.07L52.536,16.981z     M19.91,39.148V25.17L32,18.182l12.089,6.988v13.978L32,46.135L19.91,39.148z M32,1.5c1.441,0,2.614,1.175,2.614,2.618    S33.442,6.737,32,6.737c-1.442,0-2.615-1.175-2.615-2.618S30.558,1.5,32,1.5z M29.396,6.616c0.548,0.573,1.282,0.955,2.104,1.07    v9.631l-12.089,6.988l-7.965-4.642c0.174-0.423,0.273-0.884,0.273-1.369c0-0.464-0.095-0.904-0.255-1.312L29.396,6.616z     M8.604,42.237V21.861c0.943-0.132,1.764-0.625,2.328-1.341l7.979,4.65v13.975l-7.945,4.476    C10.401,42.881,9.566,42.373,8.604,42.237z M5.49,18.293c0-1.443,1.173-2.618,2.614-2.618c1.442,0,2.615,1.175,2.615,2.618    s-1.173,2.618-2.615,2.618C6.662,20.911,5.49,19.737,5.49,18.293z M8.104,48.423c-1.441,0-2.614-1.175-2.614-2.618    s1.173-2.618,2.614-2.618c1.442,0,2.615,1.175,2.615,2.618S9.546,48.423,8.104,48.423z M11.39,47.294    c0.207-0.455,0.329-0.957,0.329-1.489c0-0.466-0.096-0.909-0.257-1.318l7.945-4.476L31.5,47v9.313    c-0.918,0.129-1.719,0.6-2.282,1.285L11.39,47.294z M32,62.5c-1.442,0-2.615-1.175-2.615-2.619c0-1.443,1.173-2.618,2.615-2.618    c1.441,0,2.614,1.175,2.614,2.618C34.615,61.326,33.442,62.5,32,62.5z M34.782,57.599c-0.562-0.685-1.363-1.156-2.281-1.285V47    l12.092-6.989l7.946,4.476c-0.161,0.409-0.257,0.852-0.257,1.318c0,0.532,0.122,1.033,0.328,1.488L34.782,57.599z M58.511,45.805    c0,1.443-1.173,2.618-2.615,2.618c-1.441,0-2.614-1.175-2.614-2.618s1.173-2.618,2.614-2.618    C57.338,43.187,58.511,44.362,58.511,45.805z"></path></g></g><g xmlns="http://www.w3.org/2000/svg" display="none"><path display="inline" fill="#ff7e67" d="M32,0C14.327,0,0,14.327,0,32c0,17.673,14.327,32,32,32s32-14.327,32-32   C64,14.327,49.673,0,32,0z"></path><polygon display="inline" fill="#ff7e67" stroke="#ff7e67" stroke-width="2" stroke-miterlimit="10" points="8.104,18.346    32,4.534 55.896,18.346 55.896,45.971 32,59.783 8.104,45.971  "></polygon><polygon display="inline" fill="#ff7e67" stroke="#ff7e67" stroke-width="2" stroke-miterlimit="10" points="19.411,24.882    32,17.605 44.589,24.882 44.589,39.436 32,46.713 19.411,39.436  "></polygon><ellipse display="inline" fill="#ff7e67" stroke="#ff7e67" stroke-width="2" stroke-miterlimit="10" cx="32" cy="32.004" rx="5.69" ry="5.696"></ellipse><line display="inline" fill="none" stroke="#ff7e67" stroke-width="2" stroke-miterlimit="10" x1="8.104" y1="18.293" x2="19.411" y2="24.882"></line><line display="inline" fill="none" stroke="#ff7e67" stroke-width="2" stroke-miterlimit="10" x1="19.411" y1="39.436" x2="8.104" y2="45.805"></line><line display="inline" fill="none" stroke="#ff7e67" stroke-width="2" stroke-miterlimit="10" x1="44.589" y1="39.436" x2="55.896" y2="45.805"></line><line display="inline" fill="none" stroke="#ff7e67" stroke-width="2" stroke-miterlimit="10" x1="55.896" y1="18.293" x2="44.589" y2="24.882"></line><line display="inline" fill="none" stroke="#ff7e67" stroke-width="2" stroke-miterlimit="10" x1="32" y1="4.118" x2="32" y2="17.605"></line><line display="inline" fill="none" stroke="#ff7e67" stroke-width="2" stroke-miterlimit="10" x1="32" y1="46.713" x2="32" y2="60.199"></line><ellipse display="inline" cx="32" cy="32.004" rx="3.115" ry="3.118"></ellipse><ellipse display="inline" fill="#ff7e67" stroke="#ff7e67" stroke-width="2" stroke-miterlimit="10" cx="55.896" cy="45.805" rx="3.115" ry="3.118"></ellipse><ellipse display="inline" fill="#ff7e67" stroke="#ff7e67" stroke-width="2" stroke-miterlimit="10" cx="8.104" cy="18.293" rx="3.115" ry="3.118"></ellipse><ellipse display="inline" fill="#ff7e67" stroke="#ff7e67" stroke-width="2" stroke-miterlimit="10" cx="55.896" cy="18.293" rx="3.115" ry="3.118"></ellipse><ellipse display="inline" fill="#ff7e67" stroke="#ff7e67" stroke-width="2" stroke-miterlimit="10" cx="8.104" cy="45.805" rx="3.115" ry="3.118"></ellipse><ellipse display="inline" fill="#ff7e67" stroke="#ff7e67" stroke-width="2" stroke-miterlimit="10" cx="32" cy="4.118" rx="3.115" ry="3.118"></ellipse><ellipse display="inline" fill="#ff7e67" stroke="#ff7e67" stroke-width="2" stroke-miterlimit="10" cx="32" cy="59.882" rx="3.115" ry="3.118"></ellipse></g><g xmlns="http://www.w3.org/2000/svg" display="none"><polygon display="inline" fill="#ff7e67" points="8.104,18.346 32,4.534 55.896,18.346 55.896,45.971 32,59.783 8.104,45.971  "></polygon><path display="inline" fill="#ff7e67" d="M32,60.939L7.104,46.548V17.769L32,3.378l24.896,14.391v28.779L32,60.939z M9.104,45.394   L32,58.628l22.896-13.234V18.923L32,5.689L9.104,18.923V45.394z"></path><polygon display="inline" fill="#ff7e67" points="19.411,24.882 32,17.605 44.589,24.882 44.589,39.436 32,46.713 19.411,39.436     "></polygon><path display="inline" fill="#ff7e67" d="M32,47.868l-13.59-7.854V24.305L32,16.45l13.589,7.855v15.708L32,47.868z M20.41,38.859   L32,45.557l11.589-6.698V25.459L32,18.76l-11.59,6.699V38.859z"></path><ellipse display="inline" fill="#ff7e67" cx="32" cy="32.004" rx="5.69" ry="5.696"></ellipse><path display="inline" fill="#ff7e67" d="M32,38.701c-3.689,0-6.69-3.004-6.69-6.696s3.001-6.696,6.69-6.696   c3.688,0,6.689,3.004,6.689,6.696S35.689,38.701,32,38.701z M32,27.308c-2.586,0-4.69,2.106-4.69,4.696s2.104,4.696,4.69,4.696   s4.689-2.106,4.689-4.696S34.586,27.308,32,27.308z"></path><rect x="12.757" y="15.045" transform="matrix(0.5035 -0.864 0.864 0.5035 -11.8213 22.6047)" display="inline" fill="#ff7e67" width="2.001" height="13.086"></rect><rect x="7.269" y="41.62" transform="matrix(0.8711 -0.4912 0.4912 0.8711 -19.1607 12.2531)" display="inline" fill="#ff7e67" width="12.977" height="2"></rect><rect x="49.242" y="36.132" transform="matrix(0.4908 -0.8713 0.8713 0.4908 -11.5504 65.4774)" display="inline" fill="#ff7e67" width="2" height="12.977"></rect><rect x="43.699" y="20.587" transform="matrix(0.8639 -0.5037 0.5037 0.8639 -4.0347 28.245)" display="inline" fill="#ff7e67" width="13.086" height="2.001"></rect><rect x="31" y="4.118" display="inline" fill="#ff7e67" width="2" height="13.486"></rect><rect x="31" y="46.712" display="inline" fill="#ff7e67" width="2" height="13.486"></rect><ellipse display="inline" fill="#ff7e67" cx="32" cy="32.004" rx="3.115" ry="3.118"></ellipse><ellipse display="inline" fill="#ff7e67" cx="55.896" cy="45.805" rx="3.115" ry="3.118"></ellipse><path display="inline" fill="#ff7e67" d="M55.896,49.923c-2.269,0-4.114-1.848-4.114-4.118s1.846-4.118,4.114-4.118   c2.27,0,4.115,1.848,4.115,4.118S58.165,49.923,55.896,49.923z M55.896,43.687c-1.166,0-2.114,0.95-2.114,2.118   s0.948,2.118,2.114,2.118s2.115-0.95,2.115-2.118S57.062,43.687,55.896,43.687z"></path><ellipse display="inline" fill="#ff7e67" cx="8.104" cy="18.293" rx="3.115" ry="3.118"></ellipse><path display="inline" fill="#ff7e67" d="M8.104,22.411c-2.269,0-4.114-1.848-4.114-4.118s1.846-4.118,4.114-4.118   c2.27,0,4.115,1.848,4.115,4.118S10.373,22.411,8.104,22.411z M8.104,16.175c-1.166,0-2.114,0.95-2.114,2.118   s0.948,2.118,2.114,2.118s2.115-0.95,2.115-2.118S9.27,16.175,8.104,16.175z"></path><ellipse display="inline" fill="#ff7e67" cx="55.896" cy="18.293" rx="3.115" ry="3.118"></ellipse><path display="inline" fill="#ff7e67" d="M55.896,22.411c-2.269,0-4.114-1.848-4.114-4.118s1.846-4.118,4.114-4.118   c2.27,0,4.115,1.848,4.115,4.118S58.165,22.411,55.896,22.411z M55.896,16.175c-1.166,0-2.114,0.95-2.114,2.118   s0.948,2.118,2.114,2.118s2.115-0.95,2.115-2.118S57.062,16.175,55.896,16.175z"></path><ellipse display="inline" fill="#ff7e67" cx="8.104" cy="45.805" rx="3.115" ry="3.118"></ellipse><path display="inline" fill="#ff7e67" d="M8.104,49.923c-2.269,0-4.114-1.848-4.114-4.118s1.846-4.118,4.114-4.118   c2.27,0,4.115,1.848,4.115,4.118S10.373,49.923,8.104,49.923z M8.104,43.687c-1.166,0-2.114,0.95-2.114,2.118   s0.948,2.118,2.114,2.118s2.115-0.95,2.115-2.118S9.27,43.687,8.104,43.687z"></path><ellipse display="inline" fill="#ff7e67" cx="32" cy="4.118" rx="3.115" ry="3.118"></ellipse><path display="inline" fill="#ff7e67" d="M32,8.237c-2.27,0-4.115-1.848-4.115-4.118S29.731,0,32,0   c2.269,0,4.114,1.848,4.114,4.118S34.269,8.237,32,8.237z M32,2c-1.166,0-2.115,0.95-2.115,2.118S30.834,6.237,32,6.237   c1.166,0,2.114-0.95,2.114-2.118S33.166,2,32,2z"></path><ellipse display="inline" fill="#ff7e67" cx="32" cy="59.882" rx="3.115" ry="3.118"></ellipse><path display="inline" fill="#ff7e67" d="M32,64c-2.27,0-4.115-1.848-4.115-4.119c0-2.271,1.846-4.118,4.115-4.118   c2.269,0,4.114,1.848,4.114,4.118C36.115,62.153,34.269,64,32,64z M32,57.763c-1.166,0-2.115,0.95-2.115,2.118   C29.885,61.05,30.834,62,32,62c1.166,0,2.114-0.95,2.114-2.119C34.115,58.713,33.166,57.763,32,57.763z"></path></g><g xmlns="http://www.w3.org/2000/svg" display="none"><g display="inline"><path d="M3.165-5.018c-0.509,0-0.837,0.045-1.031,0.09V1.66c0.194,0.045,0.508,0.045,0.792,0.045    C4.988,1.72,6.331,0.584,6.331-1.821C6.346-3.912,5.121-5.018,3.165-5.018z"></path><path d="M10.213-14.165h-56.194c-2.152,0-3.903,1.751-3.903,3.903V6.949c0,2.152,1.751,3.903,3.902,3.903h56.194    c2.152,0,3.903-1.751,3.903-3.903v-17.211C14.116-12.414,12.365-14.165,10.213-14.165z M-36.288-1.044    c0,3.107-1.568,4.586-4.198,4.586c-2.539,0-4.033-1.404-4.033-4.616v-5.617h2.285v5.796c0,1.733,0.657,2.614,1.822,2.614    c1.195,0,1.853-0.836,1.853-2.614v-5.796h2.271V-1.044z M-28.382-1.238c-0.777,0.732-1.927,1.061-3.271,1.061    c-0.299,0-0.567-0.015-0.777-0.045v3.6h-2.255v-9.934c0.701-0.12,1.687-0.209,3.076-0.209c1.404,0,2.405,0.269,3.077,0.807    c0.643,0.508,1.075,1.344,1.075,2.331C-27.456-2.642-27.784-1.806-28.382-1.238z M-20.088,3.378h-6.289V-6.691h2.285v8.156h4.004    V3.378z M-15.411,3.542c-2.987,0-4.735-2.255-4.735-5.124c0-3.018,1.928-5.273,4.9-5.273c3.092,0,4.78,2.315,4.78,5.094    C-10.466,1.54-12.468,3.542-15.411,3.542z M-3.575,3.378l-0.777-2.584h-2.883l-0.717,2.584h-2.36L-7.235-6.69h2.988l3.122,10.068    H-3.575z M7.078,2.182c-1.061,0.882-2.674,1.3-4.646,1.3c-1.18,0-2.017-0.074-2.584-0.149v-9.889    c0.836-0.135,1.927-0.209,3.078-0.209c1.912,0,3.151,0.343,4.123,1.076c1.045,0.776,1.703,2.017,1.703,3.794    C8.752,0.032,8.05,1.361,7.078,2.182z"></path></g><g display="inline"><polygon points="51.98,1.537 50.056,7.85 43.763,7.85 48.866,11.791 46.932,18.129 51.995,14.21 57.051,18.124 55.109,11.792     60.202,7.85 53.903,7.85   "></polygon><path d="M71.718-11.489H32.344v7.961H22.56l9.784,16.372v1.026c0,14.42,17.16,23.756,18.687,24.558v2.558H40.859l-4.681,11.525    h31.705l-4.681-11.525H53.031v-2.557c1.526-0.799,18.688-10.142,18.688-24.558v-1.314L81.33-3.527h-9.611L71.718-11.489    L71.718-11.489z M32.344,8.945L26.086-1.528h6.258V8.945z M57.485,12.564l3.423,11.155l-8.912-6.899l-8.906,6.894l3.401-11.148    l-8.743-6.75h10.79l3.441-11.297L55.42,5.816h10.785L57.485,12.564z M77.804-1.528L71.718,8.656V-1.528H77.804z"></path></g><g display="inline"><path d="M16.974,60.511c-1.576,0-2.858,1.282-2.858,2.858v58.283c0,1.576,1.282,2.858,2.858,2.858h31.941    c1.576,0,2.858-1.282,2.858-2.858V63.369c0.001-1.576-1.282-2.858-2.858-2.858H16.974z M38.83,62.605    c0.475,0,0.863,0.387,0.863,0.863c0,0.476-0.387,0.863-0.863,0.863c-0.475,0-0.863-0.387-0.863-0.863    C37.967,62.992,38.355,62.605,38.83,62.605z M36.459,62.605c0.475,0,0.863,0.387,0.863,0.863c0,0.476-0.387,0.863-0.863,0.863    c-0.475,0-0.863-0.387-0.863-0.863C35.596,62.992,35.983,62.605,36.459,62.605z M27.059,62.605h4.23    c0.475,0,0.862,0.387,0.862,0.863c0,0.475-0.387,0.863-0.862,0.863h-4.23c-0.475,0-0.862-0.387-0.862-0.862    C26.197,62.992,26.583,62.605,27.059,62.605z M36.657,121.385h-7.425c-0.617,0-1.119-0.502-1.119-1.119    c0-0.618,0.502-1.121,1.119-1.121h7.425c0.617,0,1.12,0.503,1.12,1.12C37.777,120.882,37.275,121.385,36.657,121.385z     M48.417,116.029H17.473v-49.6h30.944V116.029z"></path></g></g></g><g id="SvgjsG2123" featurekey="textGroupContainer" transform="matrix(1,0,0,1,318,4)" fill="#07689f"><rect xmlns="http://www.w3.org/2000/svg" y="0" height="1" width="1" opacity="0"></rect><rect xmlns="http://www.w3.org/2000/svg" y="0" x="-235" width="3" height="64"></rect></g><g id="SvgjsG2124" featurekey="nameFeature-0" transform="matrix(1.0433223247528076,0,0,1.0433223247528076,100.91849044300444,9.860211109752619)" fill="#07689f"><path d="M8.2 40.36 c-1.3067 0 -2.4669 -0.17348 -3.4802 -0.52016 s-1.8666 -0.9 -2.56 -1.66 s-1.2066 -1.7533 -1.54 -2.98 s-0.47332 -2.7067 -0.42 -4.44 l2.4 0 c0 0.85332 0.04 1.74 0.12 2.66 s0.29332 1.76 0.64 2.52 s0.87336 1.38 1.58 1.86 s1.6867 0.72 2.94 0.72 c1.0667 0 1.9734 -0.16 2.72 -0.48 s1.3534 -0.74668 1.82 -1.28 s0.79336 -1.16 0.98004 -1.88 s0.28 -1.4667 0.28 -2.24 c0 -0.90668 -0.16668 -1.7 -0.5 -2.38 s-0.77332 -1.2867 -1.32 -1.82 s-1.1867 -1.0066 -1.92 -1.42 s-1.5 -0.78 -2.3 -1.1 c-1.28 -0.50668 -2.4 -1.0067 -3.36 -1.5 s-1.7467 -1.0466 -2.36 -1.66 s-1.0733 -1.3266 -1.38 -2.14 s-0.46 -1.8066 -0.46 -2.98 c0 -2.6667 0.7 -4.6532 2.1 -5.96 s3.4067 -1.96 6.02 -1.96 c2.2667 0 4.06 0.66 5.38 1.98 s1.98 3.3 1.98 5.94 l0 2.2 l-2.24 0 l0 -2.4 c0 -0.82668 -0.1 -1.5934 -0.3 -2.3 s-0.51332 -1.3267 -0.94 -1.86 s-0.96668 -0.95332 -1.62 -1.26 s-1.4333 -0.46 -2.34 -0.46 c-2.1333 0 -3.66 0.56 -4.58 1.68 s-1.34 2.6267 -1.26 4.52 c0.02668 0.82668 0.18 1.5334 0.46 2.12 s0.65332 1.1 1.12 1.54 s1.0267 0.83332 1.68 1.18 s1.38 0.69336 2.18 1.04 c0.93332 0.4 1.86 0.82668 2.78 1.28 s1.78 1.0133 2.58 1.68 c0.8 0.69332 1.46 1.5 1.98 2.42 s0.78 2.06 0.78 3.42 c0 2.64 -0.67332 4.62 -2.02 5.94 s-3.22 1.98 -5.62 1.98 z M30.797000000000004 40 l-1.72 0 l-8.28 -30 l2.12 0 l7 26.52 l7.16 -26.52 l2.04 0 z M58.19400000000001 32.44 c-0.02668 1.3333 -0.15316 2.5 -0.37984 3.5 s-0.61336 1.8267 -1.16 2.48 s-1.2667 1.14 -2.16 1.46 s-2.02 0.48 -3.38 0.48 c-2.3467 0 -4.0532 -0.65332 -5.12 -1.96 s-1.6 -3.2934 -1.6 -5.96 l0 -14.8 c0 -2.6667 0.54 -4.6532 1.62 -5.96 s2.9267 -1.96 5.54 -1.96 c2.3467 0 4.0268 0.65332 5.04 1.96 s1.5466 3.2934 1.6 5.96 l0.04 1.84 l-1.84 0 l-0.04 -2.32 c0 -0.66668 -0.06668 -1.34 -0.2 -2.02 s-0.37332 -1.3 -0.72 -1.86 s-0.83336 -1.0133 -1.46 -1.36 s-1.46 -0.52 -2.5 -0.52 c-1.0133 0 -1.86 0.16 -2.54 0.48 s-1.22 0.76 -1.62 1.32 s-0.67332 1.22 -0.82 1.98 s-0.22 1.58 -0.22 2.46 l0.08 15 c0 1.84 0.34 3.28 1.02 4.32 s1.9267 1.56 3.74 1.56 c1.04 0 1.9 -0.14 2.58 -0.42 s1.2133 -0.67332 1.6 -1.18 s0.66 -1.12 0.82 -1.84 s0.24 -1.5067 0.24 -2.36 l0.04 -2.6 l1.84 0 z M68.87100000000001 12.280000000000001 l0 12.12 l12.04 0 l0 2.12 l-12.04 0 l0 13.48 l-2.32 0 l0 -30 l14.56 0 l0 2.28 l-12.24 0 z M87.70800000000001 40 l0 -30 l2.56 0 l0 30 l-2.56 0 z M106.30500000000002 12.2 l0 27.8 l-2.32 0 l0 -27.8 l-6.52 0 l0 -2.2 l15.36 0 l0 2.2 l-6.52 0 z M126.22200000000002 40.36 c-1.3067 0 -2.4669 -0.17348 -3.4802 -0.52016 s-1.8666 -0.9 -2.56 -1.66 s-1.2066 -1.7533 -1.54 -2.98 s-0.47332 -2.7067 -0.42 -4.44 l2.4 0 c0 0.85332 0.04 1.74 0.12 2.66 s0.29332 1.76 0.64 2.52 s0.87336 1.38 1.58 1.86 s1.6867 0.72 2.94 0.72 c1.0667 0 1.9734 -0.16 2.72 -0.48 s1.3534 -0.74668 1.82 -1.28 s0.79336 -1.16 0.98004 -1.88 s0.28 -1.4667 0.28 -2.24 c0 -0.90668 -0.16668 -1.7 -0.5 -2.38 s-0.77332 -1.2867 -1.32 -1.82 s-1.1867 -1.0066 -1.92 -1.42 s-1.5 -0.78 -2.3 -1.1 c-1.28 -0.50668 -2.4 -1.0067 -3.36 -1.5 s-1.7467 -1.0466 -2.36 -1.66 s-1.0733 -1.3266 -1.38 -2.14 s-0.46 -1.8066 -0.46 -2.98 c0 -2.6667 0.7 -4.6532 2.1 -5.96 s3.4067 -1.96 6.02 -1.96 c2.2667 0 4.06 0.66 5.38 1.98 s1.98 3.3 1.98 5.94 l0 2.2 l-2.24 0 l0 -2.4 c0 -0.82668 -0.1 -1.5934 -0.3 -2.3 s-0.51332 -1.3267 -0.94 -1.86 s-0.96668 -0.95332 -1.62 -1.26 s-1.4333 -0.46 -2.34 -0.46 c-2.1333 0 -3.66 0.56 -4.58 1.68 s-1.34 2.6267 -1.26 4.52 c0.02668 0.82668 0.18 1.5334 0.46 2.12 s0.65332 1.1 1.12 1.54 s1.0267 0.83332 1.68 1.18 s1.38 0.69336 2.18 1.04 c0.93332 0.4 1.86 0.82668 2.78 1.28 s1.78 1.0133 2.58 1.68 c0.8 0.69332 1.46 1.5 1.98 2.42 s0.78 2.06 0.78 3.42 c0 2.64 -0.67332 4.62 -2.02 5.94 s-3.22 1.98 -5.62 1.98 z M147.53900000000002 12.2 l0 27.8 l-2.32 0 l0 -27.8 l-6.52 0 l0 -2.2 l15.36 0 l0 2.2 l-6.52 0 z M172.056 40 l-2.2 -8.84 l-9.76 0 l-2.2 8.84 l-2 0 l8.28 -30 l1.72 0 l8.24 30 l-2.08 0 z M165.096 11.879999999999999 l-4.52 17.36 l8.76 0 z M185.25300000000001 12.2 l0 27.8 l-2.32 0 l0 -27.8 l-6.52 0 l0 -2.2 l15.36 0 l0 2.2 l-6.52 0 z"></path></g></svg>